<svg width="420" height="96" viewBox="0 0 420 96" fill="none" xmlns="http://www.w3.org/2000/svg">
  <rect width="64" height="64" rx="18" fill="#171411"/>
  <path d="M17 44V20H34.4545C42.4864 20 49 26.5136 49 34.5455C49 42.5773 42.4864 49.0909 34.4545 49.0909H25.7273V44H34.4545C39.4983 44 43.5909 39.9074 43.5909 34.8636C43.5909 29.8198 39.4983 25.7273 34.4545 25.7273H22.4091V44H17Z" fill="#D2A86A"/>
  <path d="M27 39V29H34.5455C37.3078 29 39.5455 31.2377 39.5455 34C39.5455 36.7623 37.3078 39 34.5455 39H27Z" fill="#F4E5CF"/>
  <text x="82" y="36" fill="#171411" font-family="Georgia, serif" font-size="26" font-weight="700" letter-spacing="0.08em">GUILD ACRE</text>
  <text x="82" y="60" fill="#6B635B" font-family="Georgia, serif" font-size="12" letter-spacing="0.24em">GURGAON PROPERTY ADVISORS</text>
</svg>
