<svg width="160" height="160" viewBox="0 0 160 160" fill="none" xmlns="http://www.w3.org/2000/svg">
  <defs>
    <linearGradient id="edge" x1="26" y1="22" x2="132" y2="140" gradientUnits="userSpaceOnUse">
      <stop stop-color="#8DF7EA"/>
      <stop offset="0.52" stop-color="#49C7D9"/>
      <stop offset="1" stop-color="#CFB46D"/>
    </linearGradient>
    <linearGradient id="night" x1="80" y1="14" x2="80" y2="146" gradientUnits="userSpaceOnUse">
      <stop stop-color="#0A2434"/>
      <stop offset="1" stop-color="#05111A"/>
    </linearGradient>
  </defs>
  <rect width="160" height="160" rx="40" fill="url(#night)"/>
  <rect x="24" y="20" width="112" height="120" rx="34" stroke="url(#edge)" stroke-width="4"/>
  <path d="M80 36L104 52V108C104 118 96.3 126 86.7 126H73.3C63.7 126 56 118 56 108V52L80 36Z" stroke="url(#edge)" stroke-width="4" stroke-linejoin="round"/>
  <path d="M80 50L92 58V108C92 111.3 89.3 114 86 114H74C70.7 114 68 111.3 68 108V58L80 50Z" stroke="#E9FCFF" stroke-width="4" stroke-linejoin="round"/>
  <path d="M80 54V114" stroke="#E9FCFF" stroke-width="4" stroke-linecap="round"/>
  <path d="M68 70H92" stroke="url(#edge)" stroke-width="4" stroke-linecap="round"/>
  <path d="M68 84H92" stroke="url(#edge)" stroke-width="4" stroke-linecap="round"/>
  <path d="M68 98H92" stroke="url(#edge)" stroke-width="4" stroke-linecap="round"/>
  <path d="M48 120H112" stroke="url(#edge)" stroke-width="4" stroke-linecap="round"/>
  <circle cx="80" cy="28" r="6" fill="#E9FCFF"/>
</svg>
