<svg width="160" height="160" viewBox="0 0 160 160" fill="none" xmlns="http://www.w3.org/2000/svg">
  <defs>
    <linearGradient id="frame" x1="26" y1="20" x2="132" y2="142" gradientUnits="userSpaceOnUse">
      <stop stop-color="#8CF4E7"/>
      <stop offset="0.5" stop-color="#49C4D7"/>
      <stop offset="1" stop-color="#D6BC73"/>
    </linearGradient>
    <linearGradient id="glow" x1="80" y1="16" x2="80" y2="144" gradientUnits="userSpaceOnUse">
      <stop stop-color="#0D2433"/>
      <stop offset="1" stop-color="#06131D"/>
    </linearGradient>
  </defs>
  <rect width="160" height="160" rx="40" fill="url(#glow)"/>
  <rect x="24" y="20" width="112" height="120" rx="34" stroke="url(#frame)" stroke-width="4"/>
  <path d="M80 38L87.2 52.4L103 54.7L91.5 65.9L94.2 81.6L80 74.1L65.8 81.6L68.5 65.9L57 54.7L72.8 52.4L80 38Z" fill="url(#frame)"/>
  <path d="M57 116V78.5C57 63.3 67.4 54 80.6 54C93.9 54 102.8 61.2 102.8 72.6C102.8 84.7 93.8 92.5 81.5 92.5H69.6V84H81.1C89.1 84 94.1 79.8 94.1 72.5C94.1 65.5 88.8 62 81.1 62C72.7 62 65.6 67.7 65.6 79.4V116H57Z" fill="#EAFBFF"/>
  <path d="M81.4 67.7L93.7 116H84.5L80.7 100.8H65.1L61.3 116H52.5L64.8 67.7H81.4ZM78.8 92.8L72.9 69.6L67 92.8H78.8Z" fill="url(#frame)"/>
</svg>
