<svg width="640" height="112" viewBox="0 0 640 112" fill="none" xmlns="http://www.w3.org/2000/svg">
  <defs>
    <linearGradient id="wordEdge" x1="20" y1="14" x2="106" y2="98" gradientUnits="userSpaceOnUse">
      <stop stop-color="#8DF7EA"/>
      <stop offset="0.52" stop-color="#49C7D9"/>
      <stop offset="1" stop-color="#CFB46D"/>
    </linearGradient>
    <linearGradient id="wordNight" x1="64" y1="10" x2="64" y2="102" gradientUnits="userSpaceOnUse">
      <stop stop-color="#0A2434"/>
      <stop offset="1" stop-color="#05111A"/>
    </linearGradient>
  </defs>
  <rect x="8" y="8" width="112" height="96" rx="30" fill="url(#wordNight)"/>
  <rect x="24" y="14" width="80" height="84" rx="24" stroke="url(#wordEdge)" stroke-width="3"/>
  <path d="M64 28L82 40V82C82 90.3 75.3 97 67 97H61C52.7 97 46 90.3 46 82V40L64 28Z" stroke="url(#wordEdge)" stroke-width="3.2" stroke-linejoin="round"/>
  <path d="M64 38L74 45V82C74 85.3 71.3 88 68 88H60C56.7 88 54 85.3 54 82V45L64 38Z" stroke="#E9FCFF" stroke-width="3.2" stroke-linejoin="round"/>
  <path d="M64 41V88" stroke="#E9FCFF" stroke-width="3.2" stroke-linecap="round"/>
  <path d="M54 54H74" stroke="url(#wordEdge)" stroke-width="3.2" stroke-linecap="round"/>
  <path d="M54 66H74" stroke="url(#wordEdge)" stroke-width="3.2" stroke-linecap="round"/>
  <path d="M54 78H74" stroke="url(#wordEdge)" stroke-width="3.2" stroke-linecap="round"/>
  <path d="M38 92H90" stroke="url(#wordEdge)" stroke-width="3.2" stroke-linecap="round"/>
  <circle cx="64" cy="22" r="5" fill="#E9FCFF"/>
  <text x="144" y="48" fill="#EFFCFF" font-family="'Cormorant Garamond', Georgia, serif" font-size="37" font-weight="700" letter-spacing="0.16em">GUILD ACRE</text>
  <line x1="146" y1="64" x2="612" y2="64" stroke="url(#wordEdge)" stroke-opacity="0.45"/>
  <text x="146" y="88" fill="#8EB7C2" font-family="'Outfit', Arial, sans-serif" font-size="13" font-weight="500" letter-spacing="0.28em">GURGAON PRIVATE REAL ESTATE ADVISORY</text>
</svg>
